<svg xmlns="http://www.w3.org/2000/svg" viewBox="0 0 1000 1000"><path d="M832.48 208.25c-9.39 2.49-20.88 6.13-25.29 7.85l-8.24 3.26-8.05-5.94c-6.51-4.79-9.77-5.94-18.01-5.94-13.03 0-16.86 3.45-15.52 14.18.57 4.41 1.53 9.2 2.11 10.92.96 2.3-.96 3.64-8.81 5.94-27.01 8.43-60.53 9.58-100.19 3.26-42.14-6.51-79.5-6.9-125.48-.96-54.6 6.71-85.82 8.81-138.12 8.81-48.85 0-78.92-1.92-128.16-7.85-49.04-5.94-76.63-7.47-101.34-5.36-33.14 2.68-59 10.73-74.14 23.37-3.07 2.49-10.34 6.71-16.09 9.39-13.97 6.31-21.05 12.63-27.38 24.31-9.96 18.01-10.92 28.36-10.92 114.37v78.73l-4.6 4.21c-7.28 6.71-13.03 22.6-14.18 37.55-.77 13.22 4.02 48.27 7.09 51.34 2.68 2.68 20.88-17.43 27.39-30.65 5.36-10.92 6.51-15.52 7.09-28.93.58-14.18 0-17.05-4.6-26.44l-5.17-10.54.96-64.56c.96-64.56 3.26-88.31 9.2-95.4 3.06-3.64 5.56-1.53 5.56 4.79 0 3.07 2.11 15.71 4.79 28.54 8.05 40.04 11.11 66.67 11.11 100 0 44.06-4.41 67.62-18.58 100.57-2.68 6.32-4.98 13.22-4.98 15.52 0 2.11 2.68 11.11 5.75 19.73 12.45 34.1 27.2 92.72 30.46 121.84 3.26 27.58 3.83 29.12 11.88 38.5 7.47 8.62 7.47 8.81 7.28 24.14-.19 8.43.58 16.09 1.53 17.05.96.96 17.24 1.53 37.55 1.34l35.63-.57-7.66-16.28c-6.32-13.6-10.34-18.78-23.95-31.99-9-8.81-17.43-18.77-18.97-22.41-3.83-9.2-7.09-38.31-7.47-66.28-.19-21.46.19-24.9 4.41-34.1l4.6-10.15 16.28 27.39c24.9 42.14 36.21 64.94 37.74 76.63 1.72 13.99 7.47 25.29 16.48 32.38 10.54 8.43 13.98 15.52 12.45 26.63-.77 4.98-.38 11.3.77 14.17l1.92 4.98h35.44c24.33 0 35.44-.58 35.44-2.11 0-1.15-4.02-9.77-9-19.35-9-17.62-11.88-20.5-31.42-32.18-6.71-4.22-9.19-7.66-18.01-25.86-17.43-36.02-27.78-75.86-27.78-106.51 0-11.69.38-12.83 4.41-13.98 9.2-2.49 12.26-1.34 13.98 4.98 3.26 10.92 15.33 8.43 13.79-2.68-.77-5.17-.38-5.55 6.51-6.13 1.34-.19 2.87 1.92 3.45 4.41 1.34 5.55 5.94 8.81 10.34 7.28 2.11-.77 3.07-3.45 3.07-8.62v-7.28l13.22-4.21c7.28-2.49 18.2-6.9 24.14-9.77l10.92-5.56 10.92 3.83c36.21 12.45 78.16 20.5 116.09 22.03 24.9.96 33.52.38 65.13-4.21 39.46-5.75 57.85-5.75 74.14 0l9 3.06 1.15 12.83c.57 7.09 2.49 17.63 4.02 23.37 1.72 5.75 4.79 16.47 6.9 23.95 2.87 10.54 4.02 22.03 4.98 53.06 1.34 39.27 1.34 39.66 6.32 45.02 8.24 8.81 9.96 13.41 8.43 24.52-.57 5.55-.57 12.26.19 15.13l1.15 4.98h32.37c24.71 0 32.38-.58 32.38-2.49 0-5.94-12.07-26.63-22.99-39.65-13.6-16.28-19.16-26.25-19.16-33.91 0-10.92 14.18-81.22 15.71-78.35.96 1.53 4.21 12.65 7.47 24.52 4.41 16.47 6.13 27.97 7.09 47.89l1.53 26.44 6.9 7.09c9.96 10.54 11.11 13.79 11.11 31.99v16.48h68.58l-3.64-9.77c-6.13-16.28-11.3-24.9-23.76-40.99-6.7-8.43-15.13-21.07-18.97-27.97-6.32-11.49-6.9-13.98-6.9-27.78 0-8.24 2.11-31.23 4.79-51.15l4.79-36.01 10.15-9.96c12.07-11.88 18.01-22.99 34.87-64.56 14.75-36.78 25.09-56.71 43.29-83.33 19.16-28.16 33.72-45.02 38.89-45.02 2.3 0 11.88 2.49 21.07 5.75 18.01 5.94 49.62 13.41 57.66 13.41 7.47 0 15.9-4.98 28.16-16.86 13.79-13.03 14.18-16.67 3.64-40.04-7.47-16.67-9.77-26.05-13.6-59-.96-9.58-2.49-19.16-3.06-21.46-1.15-3.83-.38-4.21 10.54-5.56 12.83-1.34 27.39-9.58 41.38-23.18 8.43-8.05 8.24-13.22-.58-19.16-15.33-10.15-35.06-9.96-57.85.58l-10.34 4.79-3.83-5.36c-18.59-26.45-43.3-34.11-78.74-24.72z"/></svg>