<svg xmlns="http://www.w3.org/2000/svg" viewBox="0 0 1000 1000"><path d="M165.3 182.09c-15.12 3.25-31.96 9.57-43.25 16.27-6.13 3.64-11.48 6.7-12.06 6.7-.38 0-1.91 1.34-3.06 2.87-1.15 1.72-13.4 6.89-26.99 11.68-40.96 14.35-59.9 25.26-66.99 39.23-5.74 10.9-3.45 11.86 9.95 3.63 4.98-3.06 15.69-7.27 23.54-9.38 28.13-7.08 74.64-9.57 74.64-4.02 0 .96-4.02 2.11-9 2.87-28.71 3.64-72.35 15.88-68.9 19.33.57.77 7.47-.19 15.12-1.91 19.9-4.59 20.86-4.79 19.71-3.25-.38.96-6.12 3.45-12.63 5.93-20.1 7.27-36.17 15.12-36.17 17.42 0 3.25 26.99.96 47.46-4.02 8.8-2.11 17.99-3.83 20.67-3.83 8.8 0 35.41 15.12 47.08 26.99 11.48 11.29 16.65 20.67 27.37 49.57 2.87 7.85 9.57 25.07 14.93 38.28 5.17 13.21 12.82 33.3 16.84 44.79 9.57 26.22 18.18 42.87 30.43 57.99 11.87 14.74 54.55 53.97 69.86 64.31 6.32 4.21 14.16 9.95 17.23 12.44 3.25 2.68 10.33 6.89 15.69 9.19 5.55 2.49 15.12 8.04 21.24 12.25 21.05 14.35 50.91 24.69 72.15 25.07 6.32.19 13.97.76 17.23 1.53l5.74 1.15-11.48 8.81c-26.22 20.1-24.88 19.52-50.72 18.56l-23.16-.96-5.55 6.89c-3.06 3.64-6.89 9.38-8.42 12.63-4.98 10.33-2.68 41.15 2.87 41.15.96 0 6.32 4.79 12.06 10.53 5.55 5.74 11.1 10.53 12.06 10.53 1.15 0 2.3-5.74 2.87-13.01 1.15-14.16 6.7-27.37 13.59-31.77 2.3-1.53 8.23-3.83 13.4-5.17 10.91-2.68 18.76-.19 22.2 7.08 1.15 2.49 4.21 5.55 6.89 6.89 3.44 1.53 4.59 3.25 3.64 5.74-1.72 5.36 4.02 4.21 6.51-1.34 5.17-11.29 2.3-21.82-7.46-27.94-5.36-3.25-7.46-5.74-7.08-8.42.77-4.4 20.1-20.48 32.54-26.6 8.61-4.4 9.57-4.4 17.23-1.72 11.29 3.83 13.01 5.74 13.01 13.97 0 8.61-4.4 14.93-28.9 41.53-32.34 35.02-44.79 43.64-67.18 45.93-16.46 1.53-19.71 3.06-26.22 12.25-5.74 7.85-5.74 8.04-4.59 26.41.96 15.12 1.91 19.33 5.74 24.3 2.3 3.25 4.4 6.89 4.4 8.23 0 3.25 11.67 9.76 17.61 9.76 6.89 0 8.23-2.68 4.21-9.38-7.08-11.86 3.83-35.41 21.44-46.31 6.51-4.02 6.89-4.02 14.16-.77 4.02 1.91 9.38 5.36 11.68 7.85 2.11 2.29 5.17 3.83 6.7 3.25 1.72-.57 2.68.38 2.68 2.68 0 4.59 3.64 8.23 8.04 8.23 4.21 0 4.21.19.57 8.8-5.17 12.63 2.3 13.21 8.61.58 7.66-14.55 3.44-27.18-11.87-36.94-10.91-6.89-13.4-11.87-10.14-19.52 3.64-8.23 45.74-55.31 56.27-62.97 10.34-7.46 23.16-22.77 23.16-27.75 0-1.72 1.34-4.79 2.87-6.89 1.53-1.91 2.87-5.55 2.87-7.85 0-5.17 6.7-10.14 13.59-10.14 2.68 0 8.42-2.49 12.44-5.74 17.99-13.78 24.31-17.42 48.61-28.71 34.83-16.08 49.38-21.63 71.77-27.75 16.46-4.59 20.86-4.98 35.22-3.83 24.5 1.91 54.35 6.13 94.93 13.4 52.63 9.57 80.38 12.82 112.92 13.01 26.6.38 29.28 0 36.94-4.02 9.76-5.17 23.35-17.04 23.35-20.48 0-5.55-43.06-22.97-71.58-28.52-8.23-1.72-15.5-3.06-16.27-3.06-.57 0 .19-.96 1.72-1.91 1.53-.96 11.87-1.91 22.97-2.11 36.75-.38 37.51-4.78 1.91-11.29-11.87-2.1-22.2-3.83-22.78-3.83-.57 0 6.7-3.83 16.08-8.42 17.22-8.61 28.71-17.23 26.79-20.29s-48.61-9.19-115.79-15.31c-48.04-4.4-71.2-7.85-94.36-14.16-14.55-4.02-88.81-29.86-124.79-43.45-38.09-14.35-233.5-109.67-266.42-129.95-8.61-5.36-24.88-17.99-35.98-28.33-42.87-38.85-62.97-53.78-83.25-61.25-13.97-5.17-47.65-7.47-62.96-4.21zm-12.06 28.13c2.3 4.4-.19 11.29-5.17 13.78-8.23 4.4-14.35-4.02-9-12.25 3.64-5.55 11.68-6.31 14.17-1.53z"/></svg>