<svg xmlns="http://www.w3.org/2000/svg" viewBox="0 0 1000 1000"><path d="M161.02 113.3c0 3.42 1.49 10.67 3.41 16 5.55 16.22 3.41 19.85-14.72 24.97-8.32 2.56-25.18 8.96-37.13 14.3-21.55 9.6-21.98 9.82-21.98 16.86 0 6.4-1.28 7.68-14.3 15.36-8.11 4.69-25.82 13.02-39.69 18.56-14.08 5.76-25.82 11.74-26.46 13.44-1.28 3.2 5.55 19.63 14.72 34.78 6.61 11.09 13.66 14.3 39.05 17.5 22.41 2.77 35.21 2.35 45.88-1.49l9.6-3.42 18.14 12.38c20.91 14.3 44.81 40.33 48.65 53.13 2.35 7.68 11.95 25.18 28.59 52.28 7.47 12.38 13.87 37.77 14.08 57.4 0 4.27 1.92 11.52 4.27 16 2.35 4.69 5.76 16 7.68 25.39 1.71 9.39 6.19 24.32 9.6 33.07 3.2 8.75 8.75 23.9 11.95 33.5l5.76 17.71-2.35 45.88c-1.28 25.39-4.27 58.68-6.62 74.26-2.13 15.58-4.69 35.42-5.33 44.17-1.92 22.83-7.04 47.37-14.08 68.07-7.89 23.04-10.03 25.39-23.47 24.96-9.82-.21-11.31.43-18.14 7.68-5.76 6.4-7.25 9.81-7.25 16.65 0 10.67 3.2 12.59 22.62 13.02 11.31.21 17.5-.85 26.03-4.48 12.8-5.55 13.44-6.4 24.75-38.84 5.12-14.51 12.16-28.81 19.2-39.69 9.6-14.51 11.52-18.99 12.8-30.51 4.48-40.54 19.2-117.15 22.83-117.15 2.13 0 10.24 50.78 12.8 78.95 1.28 14.72 3.63 35.21 5.33 45.88 4.27 26.89 3.84 36.06-2.56 54.84-6.62 19.85-11.95 27.32-19.63 27.32-10.46 0-14.72 2.35-18.35 9.81-4.27 9.18-4.48 17.92-.43 23.47 2.77 3.41 5.76 4.05 23.05 4.05 29.23 0 31.37-1.5 37.34-26.25 5.55-23.9 16.64-58.04 22.62-69.56 3.41-7.26 3.84-10.88 2.77-23.47-4.48-46.73-5.33-65.08-5.33-115.02-.21-39.26.43-56.55 2.35-59.75 1.49-2.56 3.2-8.96 3.84-14.29l1.07-9.6 14.94-1.28c16.22-1.28 26.89-5.12 112.45-41.18 45.88-19.2 86.85-33.29 120.13-40.76 12.38-2.99 17.07-3.2 28.38-1.07 17.71 3.41 21.34 6.83 23.9 22.41 5.76 33.5 7.04 39.69 13.02 57.61 3.63 10.45 19.42 45.02 35.21 76.82 36.06 72.55 40.12 86.21 38.62 128.03-.85 21.12-2.35 31.58-6.19 43.74-4.7 14.94-5.55 16-11.31 16.64-13.23 1.07-16.22 2.78-22.41 12.59-7.04 11.1-7.68 14.94-3.41 20.91 2.13 2.99 5.33 3.84 14.29 3.63 16.22-.21 39.69-4.48 42.04-7.47 3.2-4.06 6.83-21.76 6.83-32.43 0-5.76 5.55-30.09 12.8-56.33 7.9-27.95 12.38-48.01 11.74-51.21-.64-2.78-5.33-14.72-10.46-26.67-14.29-33.5-24.11-64.87-25.61-82.37l-1.49-16 13.44 19.63c7.47 10.88 20.27 27.95 28.38 37.98 51 63.16 62.74 85.14 70.42 133.37 4.06 25.18 4.27 60.6.43 63.37-1.28 1.28-5.33 2.78-8.96 3.63-8.32 2.13-9.6 4.27-9.6 18.78 0 15.15 2.35 16.65 26.67 18.14 20.27 1.28 21.98.43 28.59-17.5 5.33-14.08 5.33-17.71 1.28-33.08-2.35-8.54-3.63-26.25-4.27-65.08l-.85-53.35-6.83-9.6c-20.06-28.17-25.82-36.7-34.57-53.35-12.8-23.69-21.34-50.15-27.1-83.22-7.47-44.17-7.68-60.6-1.28-93.89 3.2-15.79 5.97-28.81 6.4-29.23.42-.43 1.28 16.43 1.92 37.13 2.13 58.04 10.88 103.06 27.1 136.35 7.04 14.51 11.52 20.27 28.17 36.06 29.87 28.38 50.79 42.68 68.5 46.73 8.96 2.13 6.19-1.07-18.35-19.42-42.04-31.79-53.77-45.66-67.64-80.23-14.3-35.63-15.36-42.89-16.86-118.85-1.49-68.28-1.71-69.56-7.47-86.42-13.87-40.12-28.17-56.12-67.86-75.32-29.66-14.72-59.11-24.97-76.39-27.1-9.82-1.28-67.22 1.49-135.5 6.4-8.11.64-32.22 3.84-53.13 7.47-62.31 10.46-113.1 8.54-175.19-6.4-29.23-7.25-37.56-10.03-42.25-14.51-3.41-3.2-17.93-20.27-32.01-37.77-14.3-17.71-36.49-43.1-49.51-56.97-12.8-13.66-26.89-30.09-30.94-36.7-4.05-6.61-12.59-19.84-18.56-29.45-6.19-9.6-11.52-18.56-11.52-19.84-.21-1.07-.85 1.07-1.71 4.91l-1.28 7.26-6.83-9.82c-7.86-11.31-11.27-12.38-11.27-3.84z"/></svg>