<svg xmlns="http://www.w3.org/2000/svg" viewBox="0 0 1000 1000"><path d="M357.37 51.12c-55.55 6.13-99.22 27.2-135.61 65.89-24.33 25.86-41.18 55.16-52.1 90.6l-5.36 16.86-12.83 6.51c-31.03 15.71-74.89 26.82-113.39 29.11-11.3.57-21.45 1.72-22.41 2.49-1.15.57-3.06 5.94-4.41 11.68-6.51 31.6 12.26 54.59 57.27 69.53 38.12 12.64 91.75 23.75 116.45 24.33 15.13.38 17.62 1.72 31.8 18 17.43 20.11 23.75 32.56 22.03 44.05-2.3 17.81-13.02 32.18-44.63 59.76-45.4 39.65-68.58 72.98-82.17 118.76-6.13 20.69-8.43 62.63-4.6 86.38 12.83 79.87 75.27 156.1 165.68 202.46 87.15 44.63 188.67 59.95 316.42 47.7 159.17-15.13 276.58-77.96 341.9-183.11 27.2-43.86 46.16-97.49 54.2-154.76 10.15-71.83 1.92-185.22-16.66-227.16-4.6-10.73-7.66-13.02-16.67-11.68-8.04.96-16.66 4.98-63.4 29.5-46.74 24.71-88.3 40.03-138.1 51.14-98.26 21.62-189.62 14.34-213.75-17.45-4.41-5.75-5.36-9-5.36-17.81 0-11.49.39-12.07 26.63-55.16 22.41-36.58 29.88-62.82 31.22-108.6.76-27.58.38-35.43-2.87-50.76-16.28-78.34-72.02-129.86-156.49-144.61-16.67-2.88-59.58-4.99-72.79-3.65zm-64.36 122.4c21.83 11.11 26.05 46.35 8.04 64.55-4.02 3.83-9.39 7.66-12.26 8.24-23.75 5.94-44.63-23.94-35.63-50.95 6.71-19.74 24.91-29.7 39.85-21.84z"/></svg>