<svg xmlns="http://www.w3.org/2000/svg" viewBox="0 0 1000 1000"><path d="M40.5 658.3c8.5-10 17.5-19.8 25.4-30.3C76 614.5 83.8 599.5 90 583.7c6-15.6 13-30.8 19.3-46.2 2.7-6.7 4.9-13.6 7.1-20.5 1.4-4.4 4.4-7.2 9.4-9.6v6.9c-.3 32.5-.8 65-1 97.4-.1 15.7 4.4 30.7 7.8 45.9 1.1 5 2.6 10 4 15 2.4 9.2.9 18.1-1.7 27-3.9 13.2-7.2 26.5-10.8 39.8-2.4 8.9-5.2 17.7-7.1 26.6-4.3 20.6-3.3 41.4-.4 62.1 1.5 10.9 3.1 21.8-.3 32.7-1.3 4.3-2.3 8.9-2.1 13.3.3 8.1 5.8 13.3 13.8 14.2 7.7.8 15.4 1.6 23.1 1.9 10.1.5 20.2 1.1 30.3.6 12.1-.5 24.2-2.1 36.3-3.1 3.4-.3 3.9-2.1 3.6-4.8-.5-3.8-1.2-7.6-1.9-11.6l1.8-.9c5.5-2 7.8-7.2 4.6-12.1-3.1-4.8-6.9-9.1-10.7-13.4-3.5-3.9-7.9-7-11.1-11.1-4.7-6.2-8.9-12.9-12.8-19.6-3.4-5.9-2.6-12.5-.8-18.7 2.9-9.9 5.5-20.2 10.1-29.4 4.8-9.6 10.8-18.8 17.8-26.9 8.8-10.2 19.2-19.1 28.9-28.6 9.8-9.7 16.5-21.1 19.6-34.6 1.2-5.3 2.8-10.5 4.6-15.7.3-.9 2.2-1.9 3.3-1.9 12.7.8 25.4 2.2 38.1 2.7 8.3.3 16.6-.5 24.9-.8 2.1-.1 4.2-.1 6.3-.1 16.6-.6 33.3-.5 49.9-2 11-1 21.3-5.7 31.2-10.9 7.1-3.7 14.3-7.1 21.6-10.8 4.8 4.9 7.4 10.9 9 17.4 4.8 20.3 6.3 40.9 7.6 61.6.7 10.9 1.8 21.9 1.8 32.8 0 12.1-1.3 24.3-1.7 36.4-.2 6.5 1 13.1.5 19.6-.8 10.9-2.2 21.8-3.9 32.6-.6 3.5-2.7 6.8-4.3 10.2-4.1 9.1-3.2 17.2 3.1 23 1.3 1.2 3.3 2.2 5 2.1 17.8-.7 35.6-1.7 53.3-2.4 11.4-.4 22.9-.5 34.3-.6 1.5 0 3.4.6 4.5 1.6 4.1 3.9 9.2 3.9 14.1 4 14.2.2 28.3.1 42.5.1 5.9 0 11.8.3 17.7-.2 3.9-.3 7.7-1.7 11.4-2.7 2.1-.6 4.1-1.7 6.3-2.2 9-1.7 9.1-3.7 7.4-13-.6-3.1-3.5-5.7-5.4-8.5-1.8-2.6-3.6-5.2-5.6-7.6-.7-.8-2.1-1-2.8-1.8-6.7-7-14.4-13.3-18.3-22.5-1-2.3-1.5-4.8-1.8-7.3-1.9-17.3-4.4-34.5-5.4-51.8-.8-13.1.5-26.4.7-39.6.2-11-.1-22.1.2-33.1.4-13.1.6-26.2 2.1-39.1 2.5-20.6 2.2-41.2 1.1-61.8-.9-17.4-3.3-34.7-4.8-52.1-.1-1.3 1.2-3.4 2.4-4.1 13.4-8 26.8-15.8 40.3-23.5 15.1-8.6 30.3-17.1 47-26.5 2.9 3.3 6.2 7.3 9.7 11.1 3.1 3.4 6.6 6.4 9.7 9.8 4 4.3 8.1 8.5 11.8 13.1 3.6 4.5 6.6 6.2 9.4 4.3 3.2-2.2 4.2-8.3 1.7-12.2-.9-1.5-2-2.9-3.3-4.1-9.4-9.5-13.8-21.9-18.8-33.8-.5-1.1-1-2.2-1.8-4 5.7-2.6 11.3-5.4 17-7.9 3.9-1.7 7.9-3.4 12-4.7 7.6-2.5 13.4-7.5 18.5-13.4 3.2-3.7 7.3-5.7 11.3-3 10 6.7 21.5 6.9 32.7 8.9.6.1 1.2.1 1.7.3 2.3.9 4.8 1.9 6.3-.9.8-1.5.4-3.6.6-6.7 2.1-2.9 6.7-1.8 10.6-2.3 4.4-.5 8.9-1 13.3-.8 3.2.1 6.4 1.1 9.4 2 19 6 38.5 7.9 58 4.7 13.2-2.1 26.7-4.6 38-12.9 7.5-5.5 14.4-11.4 16.1-21.2.4-2 .1-4.1-.7-6.9-19.5 18-43 17.8-67.7 17.4 6.4-6.4 16.6-8.3 15.9-20.2-8.5 3.1-16.4 6.1-24.4 8.9-8.7 3-17.6 5.4-27.2 1.2 5-1.8 9.9-4.3 15-5.2 17.9-2.9 30.7-12.6 40.8-27.3 6.4-9.4 11.4-19.3 14.6-30.1 3.4-11.5 3.3-23.2 2.8-34.9-.6-14.3-6.6-27.2-11.2-40.4-4.7-13.6-7.4-27.7-5.6-42 1.8-14.9 6.8-29.1 14.8-42 3.6-5.8 6.8-11.8 10.7-17.3 7.6-10.6 17.8-17.7 30.2-21.6 3.5-1.1 6.9-2.4 10.4-3.5 3.3-1 2.8-3.9 2-5.4-3.3-5.7-2.2-11.9-2.3-17.9-.1-6-4-9.4-8.6-6.1-7.6 5.5-16.5 6.3-24.6 9.4-16.3 6.2-30.8 15.6-43.1 27.7-12.8 12.6-24.1 26.4-30.9 43.7-5.7 14.4-12.6 28.5-15.2 43.8-2.9 17.4-2.6 34.8.9 52.2 1.7 8.4 1.8 17.1 2.1 25.7.1 2.2-1.4 4.8-2.9 6.7-4.3 5.6-9 10.9-12.7 15.3-7.3-2.5-14.1-5.1-21.1-7.2-7-2.1-13.4-5.1-19.2-9.7-4.6-3.7-9.9-6.4-14.8-9.8-8.5-5.9-16.8-12.1-25.3-17.9-6-4.1-12.2-7.9-18.6-11.3-10.4-5.6-20.9-11-31.6-16.1-9.9-4.7-20.7-4.1-31.1-3.2-14.6 1.3-28.5 5.5-41.2 13-11.3 6.7-22.4 13.7-33.7 20.5-6.2 3.7-13 4.8-20.1 4.6-4-.1-8-.5-11.9 0-6.3.8-11-3.3-16.2-5.4-12.2-4.9-24.7-8.2-37.8-9.4-10.5-.9-20.9-2.7-31.3-3.7-17-1.7-33.9-1.5-49.9 5.4-9.4 4-18.3 8.9-27.7 12.8-2.5 1-5.9.6-8.6 0-10.8-2.3-21.6-5.1-32.4-7.6-9.6-2.2-19.4-3.9-28.9-6.3-17.4-4.4-33.7.7-49.9 5.5-11.8 3.4-23.3 7.7-34.7 12.4-8.1 3.3-15.9 7.4-23.3 11.9-12 7.4-24.3 14.7-35.3 23.5-11.9 9.5-22.8 20.4-33.2 31.4-9.3 9.9-17.7 20.7-26 31.5-6.3 8.2-12.4 16.6-17.5 25.5-6.6 11.6-12.5 23.5-17.8 35.7-3 7-4.1 14.8-6 22.2-2 7.9-3.6 15.9-5.9 23.7-3.5 12-7.3 24-11.3 35.9-3.2 9.5-6.7 19-10.5 28.3-3.2 7.9-7 15.7-10.7 23.4-5.1 10.7-9.8 21.6-15.6 32-4.9 8.6-10.5 16.8-16.9 24.3-3.4 3.9-9.3 5.5-13.5 8.9-6.3 5.1-10.9 11.6-12.3 21.4 4.6-2.1 8.3-3.5 11.8-5.5 7.5-4.1 12.9-10.8 18.5-17.4zm488.3 147.8c2.3-4.7 3.7-10.1 4.6-15.3 2.4-14.6 4.3-29.3 6.2-43.9 1.6-12.3 3.1-24.6 4.7-36.9.3 0 .6 0 .9.1 2 8.5 4.1 16.9 6.1 25.4 3.4 14.3 4.1 28.7 2.2 43.4-1.1 8.5-2.5 17.4 1.5 25.5 4.7 9.6 3.7 19.3 1.7 29-1.2 5.8-2.9 11.6-4.7 18.7-2.4-2.9-3.9-4.6-5.3-6.4-4.5-5.9-8.8-11.9-13.4-17.7-5.2-6.6-8.9-13.1-4.5-21.9z"/></svg>