<svg xmlns="http://www.w3.org/2000/svg" viewBox="0 0 1000 1000"><path d="M794.06 211.47c-2.38 2.81-1.29 3.24 7.13 3.24 6.48 0 11.45 1.51 14.69 4.32l5.19 4.1-19.44.22c-25.71.22-35.43 2.59-42.13 10.59-3.24 3.89-7.99 6.7-11.67 7.13-3.67.43-7.56 2.81-9.72 5.83-3.24 4.97-3.24 5.19.87 3.02 2.38-1.3 9.07-2.81 14.69-3.46 10.15-1.08 10.37-.87 6.48 3.24-5.4 5.83-14.04 10.15-28.52 13.83-6.7 1.73-14.47 4.75-17.28 6.7-3.89 2.38-8.42 3.02-17.93 2.16-7.13-.65-12.31-.43-11.45.22.87.86 6.91 1.94 13.61 2.81l12.32 1.08-16.64 5.19c-9.29 2.81-15.77 5.83-14.48 6.48 1.3.86-3.46 2.16-10.58 2.81-7.78.86-17.5 3.89-25.06 7.99-8.21 4.1-15.77 6.48-21.6 6.48-9.5 0-16.64 3.67-30.46 16.2l-8.64 7.78 14.04-8.86c14.69-9.29 20.96-11.67 27.44-10.37 3.02.65 2.38 1.73-3.67 5.4-20.96 12.75-24.2 14.91-27.22 19.88l-3.46 5.18 7.13-5.4c10.37-7.78 20.31-12.53 26.14-12.53 4.54.22 4.54.65-2.59 6.7-4.11 3.67-11.88 9.07-17.28 12.31l-9.72 5.83 6.48 1.3c4.54 1.08 5.18 1.51 2.16 1.94-3.67.43-3.46.65 1.08 1.94 4.97 1.51 4.11 2.16-7.56 6.7-11.23 4.32-17.07 4.97-42.13 4.97-26.57.22-33.27-.65-73.46-9.07-37.59-7.99-48.18-9.29-69.35-9.51-21.82 0-27.87.86-47.96 6.91-12.53 3.67-32.41 11.67-44.07 17.5-18.58 9.29-23.76 11.02-41.05 12.75-21.17 2.16-29.17 5.4-42.99 17.07-15.55 12.96-24.41 27.22-38.46 61.36-23.98 58.33-29.38 66.54-44.29 66.54-15.34 0-31.11-4.54-52.71-15.56-17.28-8.64-57.25-23.55-62-23.33-.65.22 13.61 7.35 31.33 16.2 17.93 8.86 31.33 15.99 30.03 16.2-6.05.22-36.29-9.07-49.69-15.12-14.47-6.7-36.94-15.34-39.54-14.91-.65 0 6.91 4.32 17.07 9.72 10.15 5.4 16.63 9.29 14.47 8.42-12.56-3.65-14.29-3-4.57 1.75 10.37 4.97 19.23 12.75 11.23 9.51-9.28-3.46-32.83-10.16-36.07-10.16-1.94 0 1.51 2.81 7.35 6.26 10.59 6.05 23.12 17.5 23.12 21.17 0 .87 2.81 5.62 6.27 10.37 6.7 9.29 7.34 13.39 1.94 12.31-1.73-.21-.22 1.95 3.24 4.97 3.67 3.02 7.13 5.4 7.78 5.4s2.38 2.38 3.67 5.4 4.11 5.4 6.27 5.4c1.94 0 6.05 2.38 9.07 5.18 10.59 9.94 26.57 17.28 37.38 17.07 11.88-.21 33.92-9.72 57.68-25.28 21.6-14.04 31.33-23.55 42.78-42.13 5.62-9.08 13.83-20.96 18.36-26.36 9.94-12.31 11.67-16.63 14.69-38.45 2.16-15.99 15.77-55.74 20.96-60.92.86-.86 6.05-2.38 11.23-3.24 8.43-1.3 9.51-1.08 8.21 2.16-4.75 12.31-8.21 31.98-7.56 41.7 1.72 19.89 22.46 58.35 56.16 103.71 23.12 30.89 27.44 47.31 27.65 101.97v28.74l10.37 11.23c5.62 6.27 14.91 20.09 20.74 30.68 5.83 10.58 14.04 22.9 18.15 27.65 6.48 7.35 7.13 9.29 6.05 16.42-1.08 6.7-.22 9.07 4.1 13.83 4.97 5.19 6.48 5.62 24.63 5.62 17.72 0 19.44-.43 18.15-3.89-2.59-7.13-15.99-21.6-21.17-22.9-3.89-1.08-5.83-3.68-7.78-10.59-1.51-4.97-7.13-18.8-12.96-30.68-5.62-11.88-11.02-24.41-11.88-27.87-1.3-5.84-.86-5.62 15.56 6.48 9.5 6.7 20.09 14.69 23.55 17.71 7.13 5.83 16.2 19.23 16.2 24.2 0 1.73 3.46 6.7 7.78 11.02 6.05 6.26 7.34 8.86 5.62 11.67-1.3 2.59-1.3 6.26.21 11.02l2.16 7.34h14.26c7.78 0 16.63-.65 19.44-1.51 4.54-1.08 4.75-2.16 3.67-10.15-1.08-6.92-3.67-11.02-12.1-19.01-9.29-8.43-10.8-11.02-10.8-18.36-.22-11.45-2.59-14.91-24.63-34.35-10.8-9.29-24.84-22.04-31.33-28.3l-12.1-11.23.22-13.83c.43-12.53 2.16-17.72 19.01-54.23 10.16-22.26 19.23-44.29 19.88-49.05.86-4.54 2.59-8.42 3.89-8.42 1.3 0 19.88 6.7 41.26 14.91 60.92 23.12 56.17 22.04 107.59 23.55l45.8 1.51 24.84 25.71c13.61 14.04 30.03 28.95 36.29 32.84 6.05 4.1 11.23 8.64 11.23 10.58 0 4.54-20.52 15.56-34.57 18.8-6.48 1.51-17.5 2.38-24.2 2.16-6.7-.22-12.96.65-13.61 1.73-.65 1.3-4.75 2.16-8.86 2.16-5.83 0-7.78-1.08-9.29-4.97-1.08-2.81-3.24-6.05-4.75-7.13-2.38-1.73-17.28-2.38-25.92-1.08-1.95.43-14.91 29.38-14.91 33.49 0 3.68 2.59 3.89 29.81 3.24 20.74-.22 31.54.43 36.29 2.38 6.05 2.59 8.43 2.16 31.33-7.13 13.61-5.4 30.03-11.02 36.51-12.31 6.48-1.3 14.04-2.81 16.42-3.24 5.83-1.3 18.15-20.09 18.15-27.87 0-3.24-4.32-13.4-9.72-22.47-5.19-9.29-11.02-20.52-12.96-25.06l-3.46-8.43 4.97 1.51c2.81.86 15.77 3.46 28.73 5.83 38.46 6.7 48.82 17.07 48.39 48.39-.43 23.12-1.95 29.81-7.99 32.41-5.4 2.38-5.83 4.97-2.38 12.75 3.89 8.21-.86 12.75-11.02 11.02-7.13-1.3-8.21-.65-13.39 6.48-4.54 6.48-5.18 9.29-3.89 14.04 1.08 3.46 2.38 12.53 3.24 20.31.87 8.43 2.59 14.26 4.11 14.26 1.29-.22 4.97-3.67 8.21-8.21 7.34-9.94 21.17-26.58 34.35-41.91l10.15-11.45.65-46.45c.87-42.78.43-47.1-3.24-52.93-7.13-11.24-12.75-16.42-27.22-24.41-19.01-10.37-51.85-33.27-51.85-36.3 0-1.29 1.94-4.1 4.54-6.48 11.67-10.58 19.23-36.08 19.23-65.46v-21.6l11.47-21.19c36.73-66.76 38.67-69.56 51.42-65.03 4.11 1.29 10.37 4.32 13.83 6.48 3.67 2.16 8.64 3.89 11.02 3.89 2.59 0 8.43 3.02 12.96 6.7 4.54 3.67 16.42 11.45 26.36 17.5 13.18 7.78 17.72 11.88 17.28 14.69-1.08 6.27 6.7 12.96 14.69 12.96 9.29 0 20.09-6.48 28.74-17.5 8.42-10.37 8.21-16.42-1.73-31.97-15.12-24.41-30.68-52.07-35.86-63.95-3.24-7.13-8.86-16.85-12.75-21.6-3.67-4.75-10.37-13.61-14.69-19.44l-7.99-11.02 4.32-14.91c5.62-20.74 5.19-22.68-2.81-11.67l-7.13 9.51-.65-12.53c-.43-6.7-1.51-12.32-2.59-12.32-.87 0-4.32 3.02-7.35 6.7l-5.83 6.7-16.64-5.4c-9.07-2.81-22.04-5.83-28.52-6.48l-11.88-1.3 11.23 3.89c17.28 5.62 19.23 8.86 5.18 8.86-9.07 0-14.26-1.51-24.84-7.56-14.48-8-25.06-9.51-29.38-4.33zm-17.07 22.69c-2.81 2.38-7.99 4.32-11.88 4.32h-6.7l5.4-4.32c3.03-2.38 8.43-4.32 11.88-4.1h6.48l-5.18 4.1z"/></svg>