<svg xmlns="http://www.w3.org/2000/svg" viewBox="0 0 1000 1000"><path d="M516.2 763.7l-10.6-107.6c-26.2.3-52.5-.9-78.6-3.4 0 0 37.5 82.5 39.2 99.9 1.7 17.4-35.3 53.4-16.5 58.5 28 7.5 58.8-3.8 59.5-4.2-1.1-21.8-11.3-57.9 7-43.2zM285.2 217.7c2.9-1 5.8-1.8 8.7-2.4 5-.9 10-1.5 15.1-2.3-21.6-14.9-40.9-32.8-88-46-18.8-5.3-37.1-8.1-54.7-8.9 4.1 17.3 7.2 31.2 10.5 44.1 33.7 10.6 52.1 25.8 108.4 15.5z"/><path d="M981.9 212.6c1.7-3.5 3.6-6.8 5-9.3 1-1.8-13.3-1.1-15.7 3.3-.3.5-.5 1-.8 1.5-12.9-2.5-24.5 3.2-32.3 14.9-7.1-1.4-14.6-1.1-20.7.8-14.7 4.7-19.5 18.7-19.7 34.4-2.8-3.5-5.8-6.7-8.8-9.7-14.6-16.3-32.5-28.6-52-33.9-173.2-41.5-352.3-41.5-525.6 0-3.2.9-6.4 1.9-9.5 3.2-90.8 22.8-94.8-17.2-192.6-8.1-21.4 2-41.7 6.1-60.5 12 22.4 37 32.8 55.9 61 86.7 18.7 20.4 41.3 37.6 60.7 54.9-19.4-13.5-42.6-25.3-65.1-39-26.5 27.5-52 53.5-79.1 63.1-2.1-2.8-3.3-4.6-7.2-4.6-6.3 0-9.3 4.9-9.3 10.9v65.1h68.2c-10.7 10.1-21.5 16.2-32.1 21.4 18.8 5.8 39.2 11.2 60.5 13.2 1.6.2 3.2.8 4.8 1 12.2 31.1 33.9 58.7 65.1 66.1 25.5 6.1 72.2 27.4 112.8 43.1 3.5 2 7 3.9 10.6 5.4 23.1 43.3 60.2 116.7 63.3 146.4 1.6 15.4-49.1 68.9-23.9 74.5 23 5.2 68.8-9.9 69.8-10.3-1.6-25.1-9.8-60.4 14.7-43.5L412 632.5c88.1 12.9 177 15.2 265.4 7.1 11 10.9 24.4 20.8 39.8 28.8 25.1 13 50.4 18.4 71.3 16.6-1.4 43.9-17.5 87.8-17.5 87.8-2.8 2.1-62.5 48.3-41.6 62.1 19.1 12.6 70.4 4.3 71.4 4.4 7.6-18.3 3.3-43.5 26.4-31.6l55-161.1c1.2-19-22.4-4.1-14.5-48.2 29.7-20.9 51.9-57.6 57.6-94.8 9-27.7 14.4-60.5 14.4-95.9 0-41-7.1-78.7-19-108.7.3-.5.5-.9.3-1.4-3.2-11.3-5.2-23.1-6.3-34.9-.8-8.6-.7-17.4 1.5-25.7 2.8-10.3 10.4-9 17.1-4.4-4.8 13.3-8.7 38.1 8.6 36.1 13.6-1.6 23.1-10.2 18.8-26.6-1.8-6.7-5.8-11.4-10.8-14.6 1.9-5 4.6-9.6 8-13.5 1.9-2.1 5.2.4 8.3 4.1-3.9 12.1-3.9 24.9 12 21.6 15.4-3.2 14.7-19.2 3.7-27.1zm-37.1 34.7c.5 1.7.8 3.5 1.1 5.2.2 1.6.1 3.2-.2 4.8-1.1-2.6-1.3-6.1-.9-10z"/></svg>