<svg xmlns="http://www.w3.org/2000/svg" viewBox="0 0 1000 1000"><path d="M285.68 129.11c-2.4.65-14.6 5.88-27.23 11.76-12.63 5.66-31.59 12.85-42.26 15.69l-19.39 5.23-16.56-7.41c-26.8-11.55-47.49-8.93-72.33 9.8-7.62 5.88-21.57 15.69-30.93 22-29.41 19.61-60.56 46.19-63.83 53.81-4.79 11.33-3.92 30.5 1.31 35.73 2.61 2.61 5.45 6.97 6.54 9.8 1.09 3.05 5.23 7.41 9.15 9.8 6.1 3.7 9.59 4.14 23.53 3.05 13.07-1.09 19.17-.44 30.5 3.27 7.84 2.4 18.3 4.58 23.53 4.58h9.15v9.15c.22 20.26 18.74 45.31 36.38 48.8 7.41 1.31 8.93 5.88 10.24 27.01.87 16.12 1.09 16.78 6.97 23.75 3.05 3.7 6.54 10.46 7.84 14.81 1.09 4.57 3.48 9.8 5.01 11.55s3.27 6.97 4.14 11.33c.87 4.79 2.83 8.28 4.36 8.28 1.74 0 3.7 2.4 4.36 5.45.87 3.05 4.36 7.41 8.06 9.59 3.7 2.4 8.71 7.19 10.89 10.89 2.4 3.92 5.66 7.41 7.41 8.28 1.96.65 6.1 6.75 9.59 13.51 3.27 6.75 6.97 14.16 8.28 16.56 1.31 2.4 3.7 7.84 5.23 11.98 1.74 4.14 6.32 11.11 10.67 15.47 4.14 4.14 9.58 10.24 11.98 13.5 4.58 6.32 9.37 7.41 58.82 12.2 20.04 1.96 30.06 6.32 34.86 15.47 1.96 3.7 4.36 6.54 5.45 6.54 3.05 0 8.06 13.29 10.67 27.88 5.66 31.59 9.37 67.1 8.28 80.61-1.53 20.48-10.68 47.27-21.35 62.52-4.79 6.97-13.07 19.83-18.3 28.1l-9.37 15.47 16.12.65c8.93.44 16.12 1.09 16.12 1.74 0 .44-4.79 10.68-10.89 22.66-5.88 11.98-10.89 22.22-10.89 22.88 0 .65 4.58 1.09 10.02 1.09 8.06 0 10.24.87 11.11 4.36.87 3.05 2.61 3.92 6.97 3.27 3.05-.44 11.11-1.53 17.86-2.18 16.12-1.74 19.39-5.66 24.62-29.63.65-3.05 3.49-6.54 6.32-7.84l5.23-2.4-.87-40.09c-1.09-37.47-.65-42.26 5.66-79.95 6.32-35.95 7.62-40.96 13.29-47.93 3.7-4.14 6.54-8.71 6.54-9.8s2.4-6.97 5.23-13.07c2.83-6.1 8.06-20.26 11.33-31.16 5.88-19.61 6.32-20.26 13.51-21.57 4.14-.87 12.85-.65 19.61.22 6.97 1.09 15.47 1.74 18.95 1.74 3.7 0 13.07 1.31 21.13 3.05 8.28 1.74 16.34 2.61 18.3 1.96 1.74-.66 7.41.87 12.2 3.27 8.71 4.57 30.06 5.66 118.08 6.32 3.27.22 11.33-1.74 17.65-4.14 6.32-2.4 13.51-3.71 15.9-3.05 2.61.65 8.28-1.31 13.94-4.57 5.45-3.05 11.11-5.67 12.85-5.67 1.75 0 6.97-1.96 11.55-4.58 13.72-7.41 18.95-6.32 35.51 7.19 24.83 20.48 38.56 30.06 42.26 30.06 1.96 0 6.1 1.96 9.15 4.36 3.05 2.4 8.06 4.36 11.11 4.36 3.05 0 10.02 2.4 15.68 5.45 5.67 3.05 11.98 5.45 14.16 5.45 8.28 0 16.56 45.1 14.16 77.34-2.18 30.94-6.32 44.01-17.21 54.68-5.01 4.79-12.85 13.51-17.43 19.39-7.41 9.58-7.84 10.89-4.36 12.2 2.18.87 7.19 1.74 11.11 1.74l7.19.22-12.2 17.64c-6.97 9.59-12.2 17.65-11.76 17.87.44.22 3.05 1.74 5.67 3.27 2.83 1.53 12.85 2.62 23.74 2.62 18.08 0 18.95-.22 25.05-6.75 3.27-3.71 11.11-15.25 17.21-25.93 8.71-15.25 11.33-22.22 12.85-33.99 1.09-8.28 3.92-19.39 6.1-24.83 3.92-8.93 6.75-18.95 13.72-49.02 1.53-6.1 2.83-15.25 3.27-20.7.22-5.45 1.53-15.03 3.05-21.57 1.31-6.32 2.4-20.7 2.4-31.59 0-18.96-.22-20.26-6.54-27.45-3.48-4.14-6.32-8.71-6.54-10.24 0-1.52-1.53-6.1-3.49-10.24-3.49-6.97-3.49-7.63.65-13.73 8.93-12.42 18.08-34.42 18.08-43.13.22-4.79 1.53-11.11 3.27-14.16s3.05-7.63 3.27-10.46c0-2.61 1.53-7.41 3.49-10.46 3.27-4.79 3.27-8.28 1.09-31.15-1.31-14.38-2.4-32.68-2.4-40.96 0-8.06-1.09-18.52-2.4-23.31-1.74-6.1-1.53-10.02.22-14.38 1.96-5.01 1.96-7.19-.65-11.33-1.74-2.61-6.32-14.16-10.24-25.27-6.32-17.86-8.28-20.91-16.12-26.14-4.79-3.27-11.11-9.37-13.72-13.51-7.84-12.2-18.73-24.18-24.83-27.45-3.27-1.52-10.68-3.92-16.34-5.23-5.88-1.31-11.98-3.7-13.94-5.45-1.74-1.53-11.11-5.01-20.7-7.63-9.59-2.61-20.7-6.54-24.62-8.93-3.92-2.18-9.15-4.14-11.55-4.14-2.4 0-7.41-1.74-11.33-3.7-5.45-2.83-11.55-3.48-28.76-3.05-11.98.22-23.53 1.53-25.71 2.83-2.61 1.31-6.32 1.31-10.68-.22-5.23-1.96-10.67-1.53-23.96 1.31-14.38 3.05-17.86 3.05-22.87.65-10.89-5.01-24.83-6.32-37.47-3.05-8.93 2.4-12.42 2.61-14.81.65-2.18-1.96-7.19-1.96-20.91 0-9.8 1.53-25.71 2.61-35.29 2.4-9.58-.22-32.68.65-51.2 2.18-38.34 2.83-70.8 1.74-85.18-3.05-5.23-1.74-15.9-3.7-23.75-4.36-7.84-.65-18.95-1.96-25.05-2.61-13.72-1.52-15.25-1.52-40.74 1.53-23.31 2.83-24.84 2.18-45.31-11.98-5.01-3.7-13.29-6.97-18.08-7.63-8.06-1.09-9.59-2.4-13.07-10.02-2.4-4.79-8.06-12.85-12.85-17.86-8.06-8.28-8.71-9.59-5.88-13.29 14.81-20.48 26.14-38.12 26.58-42.26.44-4.36-.65-5.01-7.19-5.45-4.15.01-9.6.23-12 .88z"/></svg>