<?xml version="1.0" standalone="no"?>
<!DOCTYPE svg PUBLIC "-//W3C//DTD SVG 20010904//EN"
 "http://www.w3.org/TR/2001/REC-SVG-20010904/DTD/svg10.dtd">
<svg version="1.0" xmlns="http://www.w3.org/2000/svg"
 width="700.000000pt" height="700.000000pt" viewBox="0 0 700.000000 700.000000"
 preserveAspectRatio="xMidYMid meet">
<metadata>
Created by potrace 1.11, written by Peter Selinger 2001-2013
</metadata>
<g transform="translate(0.000000,700.000000) scale(0.100000,-0.100000)"
fill="#000000" stroke="none">
<path d="M3450 6344 c-756 -43 -1367 -292 -1809 -735 -151 -151 -280 -323
-373 -495 -40 -74 -41 -75 -72 -67 -181 46 -377 -91 -568 -399 -77 -124 -191
-367 -236 -503 -83 -250 -130 -561 -139 -921 -7 -274 5 -457 43 -661 50 -272
160 -523 277 -631 20 -19 24 -31 21 -60 -2 -20 -13 -122 -24 -227 -37 -340
-106 -741 -181 -1040 -26 -106 -92 -334 -106 -371 -4 -12 110 -14 691 -14
l697 0 -6 48 c-3 26 -16 202 -30 392 -13 190 -27 374 -31 409 l-6 63 74 -61
c411 -344 930 -553 1538 -622 135 -15 503 -15 645 0 590 64 1101 266 1513 599
l102 83 -5 -53 c-11 -105 -65 -852 -61 -855 1 -2 313 -2 693 -1 l691 3 -34
110 c-115 373 -213 885 -263 1373 l-20 193 59 71 c186 221 283 612 283 1143 0
449 -61 836 -178 1131 -159 401 -388 710 -585 790 -69 29 -164 25 -226 -7
l-51 -27 -64 91 c-74 106 -241 283 -349 370 -117 95 -272 192 -428 269 -164
80 -162 71 -27 134 41 20 75 38 75 40 0 1 -82 30 -182 63 -207 68 -450 130
-615 157 -62 11 -113 21 -113 24 0 7 150 107 183 121 57 25 40 30 -203 54
-151 14 -487 25 -600 19z m-1023 -1454 c305 -41 628 -143 974 -307 l135 -64
100 49 c288 144 616 256 899 307 126 23 362 31 466 16 339 -49 571 -250 668
-579 45 -152 55 -239 56 -457 0 -168 -4 -227 -19 -294 -86 -393 -320 -730
-688 -994 -45 -32 -88 -62 -96 -66 -11 -6 -4 -22 31 -72 117 -168 174 -336
184 -539 11 -243 -59 -461 -211 -665 -279 -371 -761 -599 -1316 -622 -518 -21
-1018 157 -1341 477 -391 388 -454 895 -167 1333 29 44 47 81 42 86 -5 4 -40
29 -79 56 -311 216 -544 508 -654 818 -57 162 -74 271 -74 467 1 452 122 754
368 919 90 60 202 104 315 124 101 18 298 21 407 7z m-1226 -49 c49 -52 73
-126 65 -195 -18 -143 -18 -206 0 -293 12 -60 18 -131 17 -223 0 -147 -7 -205
-60 -475 -20 -105 -35 -216 -36 -265 -2 -81 2 -95 65 -280 165 -482 178 -808
42 -1007 -42 -61 -83 -94 -162 -131 -51 -24 -69 -27 -162 -27 -99 0 -110 2
-172 33 -175 86 -295 321 -352 687 -60 388 -34 903 65 1288 80 307 258 647
428 817 84 84 127 109 185 110 33 0 45 -7 77 -39z m4812 23 c122 -63 263 -249
394 -521 114 -236 181 -480 220 -803 21 -179 24 -623 5 -775 -56 -431 -178
-693 -370 -787 -62 -31 -73 -33 -172 -33 -99 0 -110 2 -171 32 -115 57 -186
153 -225 303 -13 51 -15 97 -12 225 6 213 42 369 158 700 41 115 42 123 36
205 -3 47 -19 155 -36 241 -68 351 -76 511 -39 721 21 116 21 120 4 208 -11
55 -15 104 -10 127 9 49 53 130 83 154 31 24 92 25 135 3z"/>
<path d="M2500 4067 c-130 -37 -250 -178 -290 -342 -16 -69 -14 -228 4 -298
87 -324 392 -442 602 -233 200 201 201 574 2 778 -84 86 -214 125 -318 95z"/>
<path d="M4400 4067 c-64 -18 -111 -49 -169 -112 -89 -98 -131 -218 -132 -372
0 -159 50 -293 144 -388 72 -71 133 -99 228 -103 69 -4 83 -1 142 27 246 118
331 497 172 766 -87 147 -245 222 -385 182z"/>
<path d="M3254 2975 c-40 -27 -67 -111 -68 -205 0 -93 14 -148 51 -197 47 -64
120 -34 155 64 7 21 13 79 13 128 0 99 -14 150 -52 195 -28 33 -65 39 -99 15z"/>
<path d="M3727 2979 c-26 -15 -54 -77 -67 -148 -17 -95 2 -198 47 -258 47 -64
120 -34 155 64 7 21 13 79 13 128 0 99 -14 150 -52 195 -26 31 -62 39 -96 19z"/>
<path d="M2440 2145 c-9 -11 -15 -39 -15 -69 0 -180 283 -458 595 -584 198
-81 353 -108 569 -99 322 13 607 130 844 348 156 142 243 323 191 397 -21 30
-65 29 -310 -8 -422 -62 -450 -65 -779 -65 -327 0 -414 7 -755 61 -85 14 -193
28 -240 31 -74 5 -87 3 -100 -12z"/>
</g>
</svg>
